<svg width="15" height="15" viewBox="0 0 15 15" fill="none" xmlns="http://www.w3.org/2000/svg">
<g id="Frame" clip-path="url(#clip0_762_1705)">
<g id="Group">
<path id="Vector" d="M15.0003 7.64697C14.8985 7.9328 14.7301 8.15206 14.4169 8.21471C14.3347 8.23037 14.2524 8.23037 14.1702 8.23037C12.2438 8.23037 10.3135 8.23429 8.38713 8.22646C8.25401 8.22646 8.23443 8.26561 8.23443 8.38699C8.23835 10.329 8.23835 12.2711 8.23835 14.2131C8.23835 14.5381 8.10522 14.777 7.81939 14.9258C7.75675 14.9571 7.69019 14.9727 7.62362 14.9962C7.52574 14.9962 7.42785 14.9962 7.32997 14.9962C7.30647 14.9492 7.25557 14.9571 7.22033 14.9375C6.92276 14.7926 6.77398 14.5577 6.77398 14.2288C6.77398 12.8075 6.77398 11.3862 6.77398 9.96882C6.77398 9.44024 6.77006 8.91557 6.77789 8.38699C6.77789 8.26169 6.7544 8.22646 6.62127 8.22646C4.67531 8.23037 2.72542 8.23037 0.779457 8.23037C0.325267 8.23037 -0.00362889 7.90539 0.0081174 7.47469C0.0159483 7.10273 0.321352 6.78949 0.693317 6.766C0.771626 6.76209 0.849934 6.766 0.928243 6.766C2.82331 6.766 4.71446 6.766 6.60953 6.76992C6.73482 6.76992 6.77789 6.74642 6.77789 6.60938C6.77398 4.66342 6.77398 2.71353 6.77398 0.767567C6.77398 0.332955 7.08329 0.00797452 7.4905 0.000143669C7.89379 -0.00768718 8.2266 0.305547 8.23443 0.708836C8.24226 0.998578 8.23835 1.2844 8.23835 1.57415C8.23835 3.24995 8.24226 4.92183 8.23443 6.59764C8.23443 6.75425 8.28141 6.77383 8.41846 6.77383C10.3214 6.76992 12.2243 6.76992 14.1311 6.76992C14.6401 6.76992 14.8476 6.91479 15.0081 7.38464C15.0003 7.47078 15.0003 7.55692 15.0003 7.64697Z" fill="black"/>
</g>
</g>
<defs>
<clipPath id="clip0_762_1705">
<rect width="15" height="15" fill="white"/>
</clipPath>
</defs>
</svg>
