<svg width="24" height="24" viewBox="0 0 24 24" fill="none" xmlns="http://www.w3.org/2000/svg">
<path d="M14.677 4.28571V7.42857C14.677 7.74416 14.93 8 15.2422 8H18.9161M18.4515 7.32088L15.3772 4.47019C15.0502 4.16697 14.6222 4 14.172 4H7.75362C6.78668 4 6 4.77103 6 5.71875V18.2813C6 19.229 6.78668 20 7.75362 20H17.2464C18.2133 20 19 19.229 19 18.2813V8.56944C19 8.09916 18.8001 7.64406 18.4515 7.32088Z" stroke="black" stroke-width="1.25" stroke-linecap="round"/>
<path d="M13.3621 12.5348L11.66 14M11.66 14L9.5 15.8M11.66 14L13.3969 15.4319M11.66 14L9.5 12.2M14.9 11.9C14.9 12.3971 14.497 12.8 14 12.8C13.503 12.8 13.1 12.3971 13.1 11.9C13.1 11.4029 13.503 11 14 11C14.497 11 14.9 11.4029 14.9 11.9ZM14.9 16.1C14.9 16.597 14.497 17 14 17C13.503 17 13.1 16.597 13.1 16.1C13.1 15.603 13.503 15.2 14 15.2C14.497 15.2 14.9 15.603 14.9 16.1Z" stroke="black" stroke-width="1.25" stroke-linecap="round" stroke-linejoin="round"/>
</svg>
