<svg width="20" height="20" viewBox="0 0 20 20" fill="none" xmlns="http://www.w3.org/2000/svg">
<path d="M6.26522 12.7496L7.74956 14.1321M6.26522 12.7496L3.3335 15.5554H6.14051L7.74956 14.1321M6.26522 12.7496C5.99116 12.4944 5.9969 12.083 6.23551 11.7986C6.79133 11.136 6.99336 10.5369 7.05226 10.0903C7.11706 9.59878 7.24484 9.06748 7.62074 8.7173L8.24664 8.13602M7.74956 14.1321C8.02362 14.3873 8.46531 14.382 8.77073 14.1598C9.48207 13.6421 10.1254 13.454 10.6049 13.3991C11.1325 13.3387 11.703 13.2197 12.0789 12.8696L12.7031 12.2866M8.24664 8.13602L12.7031 12.2866M8.24664 8.13602C7.97258 7.88078 7.97258 7.46695 8.24664 7.21171L11.2179 4.44434M12.7031 12.2866C12.9771 12.5419 13.4215 12.5419 13.6955 12.2866L16.6668 9.51934" stroke="black" stroke-width="1.25" stroke-linecap="round" stroke-linejoin="round"/>
</svg>
