<svg width="24" height="24" viewBox="0 0 24 24" fill="none" xmlns="http://www.w3.org/2000/svg">
<path d="M12.937 5.94681C12.4565 5.9381 11.9656 5.93359 11.4666 5.93359C10.3622 5.93359 9.29767 5.95566 8.29791 5.99656C6.47569 6.07111 5.56458 6.10839 4.84378 6.80287C4.12297 7.49735 4.0917 8.34469 4.02919 10.0394C4.01005 10.5581 4 11.0953 4 11.6457C4 12.1961 4.01005 12.7333 4.02919 13.252C4.0917 14.9467 4.12297 15.794 4.84378 16.4885C5.56458 17.183 6.47569 17.2203 8.29791 17.2948C8.35836 17.2973 8.41904 17.2997 8.47995 17.302V18.9787C8.47995 19.2665 8.72395 19.4998 9.02494 19.4998C9.15507 19.4998 9.28091 19.4553 9.3797 19.3743L11.007 18.0399C11.4162 17.7045 11.6207 17.5367 11.8638 17.4482C12.1069 17.3597 12.3836 17.3546 12.937 17.3446C13.5197 17.334 14.0872 17.3172 14.6352 17.2948C16.4575 17.2203 17.3686 17.183 18.0894 16.4886C18.8102 15.794 18.8415 14.9467 18.904 13.252C18.9231 12.7333 18.9332 12.1961 18.9332 11.6457C18.9332 11.526 18.9327 11.407 18.9317 11.2887" stroke="#5E5D5D" stroke-width="1.5" stroke-linecap="round" stroke-linejoin="round"/>
<path d="M20 6.5C20 7.60457 19.1046 8.5 18 8.5C16.8954 8.5 16 7.60457 16 6.5C16 5.39543 16.8954 4.5 18 4.5C19.1046 4.5 20 5.39543 20 6.5Z" fill="#5FD291" stroke="#34A853" stroke-width="1.25" stroke-linecap="round"/>
<path d="M11.9973 11.9607H11.9006M8.90196 11.9607H8.80524M15.0916 11.9607H14.9949M12.094 11.9607C12.094 12.0662 12.0075 12.1518 11.9006 12.1518C11.7938 12.1518 11.7072 12.0662 11.7072 11.9607C11.7072 11.8551 11.7938 11.7695 11.9006 11.7695C12.0075 11.7695 12.094 11.8551 12.094 11.9607ZM8.99867 11.9607C8.99867 12.0662 8.91207 12.1518 8.80524 12.1518C8.69842 12.1518 8.61182 12.0662 8.61182 11.9607C8.61182 11.8551 8.69842 11.7695 8.80524 11.7695C8.91207 11.7695 8.99867 11.8551 8.99867 11.9607ZM15.1883 11.9607C15.1883 12.0662 15.1017 12.1518 14.9949 12.1518C14.888 12.1518 14.8015 12.0662 14.8015 11.9607C14.8015 11.8551 14.888 11.7695 14.9949 11.7695C15.1017 11.7695 15.1883 11.8551 15.1883 11.9607Z" stroke="#5E5D5D" stroke-width="1.5" stroke-linecap="round" stroke-linejoin="round"/>
</svg>
