<svg width="20" height="20" viewBox="0 0 20 20" fill="none" xmlns="http://www.w3.org/2000/svg">
<g clip-path="url(#clip0_1699_103)">
<path d="M12.99 7.23108L12.6449 15.5386M7.86936 15.5386L7.52426 7.23108M17.4664 4.26809C17.8075 4.31608 19 4.5 19 4.5M17.4664 4.26809L16.4011 17.0828C16.3577 17.6046 16.103 18.0919 15.688 18.4473C15.2731 18.8028 14.7284 19.0002 14.163 19H6.35131C5.78588 19.0002 5.24123 18.8028 4.82627 18.4473C4.4113 18.0919 4.15662 17.6046 4.11314 17.0828L3.04792 4.26809M17.4664 4.26809C16.3152 4.10703 15.1581 3.9848 13.9974 3.90163M3.04792 4.26809C2.70681 4.31516 1.33912 4.44554 1 4.5M3.04792 4.26809C4.19905 4.10703 5.35614 3.9848 6.51688 3.90163M13.9974 3.90163V3.05612C13.9974 1.96692 13.0898 1.05863 11.9128 1.02448C10.8093 0.99184 9.70497 0.99184 8.60146 1.02448C7.42452 1.05863 6.51688 1.96784 6.51688 3.05612V3.90163M13.9974 3.90163C11.5076 3.72356 9.00668 3.72356 6.51688 3.90163" stroke="#CCCCCC" stroke-width="1.2" stroke-linecap="round" stroke-linejoin="round"/>
</g>
<defs>
<clipPath id="clip0_1699_103">
<rect width="20" height="20" fill="white"/>
</clipPath>
</defs>
</svg>
