<svg xmlns="http://www.w3.org/2000/svg" width="45" height="45" viewBox="0 0 45 45"><g transform="translate(-733 -516)"><circle cx="22.5" cy="22.5" r="22.5" transform="translate(733 516)" fill="#02dac5"/><path d="M156.775,819.734a2.21,2.21,0,0,1,.641-1.206,1.988,1.988,0,0,1,2.848.146c1.772,1.765,2.5,2.281,4.268,4.051a2.812,2.812,0,0,1,.209.277,3.547,3.547,0,0,1,.227-.284q6.155-6.154,12.312-12.3a2.015,2.015,0,0,1,2.162-.577,1.982,1.982,0,0,1,.929,3.064,4.628,4.628,0,0,1-.308.347q-6.89,6.886-13.781,13.773a1.969,1.969,0,0,1-2.175.585,2.329,2.329,0,0,1-.83-.536c-2.3-2.281-3.553-3.326-5.85-5.615a2.42,2.42,0,0,1-.651-1.23Z" transform="translate(587.225 -279.728)" fill="#fff"/></g></svg>