<svg width="12" height="7" viewBox="0 0 12 7" fill="none" xmlns="http://www.w3.org/2000/svg">
<path id="Vector" d="M6.01597 5.03612C6.66764 4.34925 7.29795 3.68173 7.92826 3.0142C8.77223 2.12418 9.61085 1.23415 10.4548 0.344117C10.6631 0.126447 10.9142 0.000681788 11.24 0.0393787C11.5712 0.0780757 11.8116 0.2377 11.9344 0.52309C12.0626 0.813317 11.9985 1.07936 11.7795 1.31638C11.3415 1.78558 10.8982 2.24994 10.4548 2.71914C9.21558 4.03 7.97633 5.34086 6.73708 6.65172C6.49137 6.91292 6.20292 7.06771 5.82901 6.97096C5.65274 6.92743 5.46578 6.82585 5.34827 6.70492C3.62828 4.90068 1.91897 3.08676 0.209666 1.27768C-0.105487 0.943919 -0.0574131 0.465044 0.300473 0.189329C0.674384 -0.100898 1.19252 -0.0525269 1.52904 0.300583C2.97661 1.82911 4.42418 3.36248 5.87175 4.891C5.90914 4.9297 5.95721 4.97324 6.01597 5.03612Z" fill="#A6ABB3"/>
</svg>
