<svg width="24" height="24" viewBox="0 0 24 24" fill="none" xmlns="http://www.w3.org/2000/svg">
<path d="M11.8118 20.5L15.7383 9.85931H17.0737L21 20.5H19.6682L18.6784 17.7472H14.1198L13.1301 20.5H11.8118ZM4.88185 17.9231L4.00932 17.0032L8.43381 12.3519C7.90105 11.7805 7.39632 11.1106 6.91961 10.3421C6.4429 9.5739 6.0731 8.83077 5.81021 8.11277H7.15314C7.38297 8.65248 7.69376 9.2275 8.08551 9.83784C8.4774 10.4482 8.88434 10.9834 9.30634 11.4436C9.98604 10.7274 10.5957 9.91267 11.1353 8.99957C11.6747 8.08632 12.0704 7.19112 12.3225 6.31396H3V5.00803H8.70159V3.5H9.94623V5.00803H15.6434V6.31396H13.6203C13.3123 7.39524 12.8558 8.47309 12.2507 9.54752C11.6455 10.6218 10.9564 11.5638 10.1831 12.3734L12.2413 14.5888L11.7656 15.9323L9.30634 13.2863L4.88185 17.9231ZM14.5364 16.5535H18.2576L16.3969 11.3967L14.5364 16.5535Z" fill="black"/>
</svg>
