<svg width="150" height="100" viewBox="0 0 150 100" fill="none" xmlns="http://www.w3.org/2000/svg">
<path d="M139.994 83.7013C139.994 86.5752 137.501 90 134.651 90H15.0214C12.1522 90 10.0001 86.5752 10.0001 83.7013C9.99847 83.547 10.0271 83.3938 10.0843 83.2507C10.1416 83.1075 10.2263 82.9772 10.3336 82.8671C10.4409 82.7571 10.5686 82.6694 10.7096 82.6093C10.8506 82.5491 11.0019 82.5176 11.155 82.5165H57.0066C57.1195 82.5161 57.2312 82.5401 57.3341 82.5869C57.437 82.6338 57.5288 82.7023 57.6032 82.7879L57.6413 82.7687L59.5866 84.9631H90.4175L92.3627 82.7687L92.4009 82.7879C92.4701 82.7011 92.5582 82.6316 92.6583 82.5845C92.7584 82.5375 92.8679 82.5142 92.9783 82.5165H138.825C138.98 82.5154 139.133 82.5453 139.276 82.6045C139.419 82.6637 139.549 82.7509 139.658 82.8611C139.768 82.9714 139.854 83.1024 139.913 83.2466C139.971 83.3909 140.001 83.5454 140 83.7013" fill="#02DAC5"/>
<path d="M120.975 10H29.5875C25.705 10 22.5576 13.1736 22.5576 17.0885V67.7208C22.5576 71.6357 25.705 74.8093 29.5875 74.8093H120.975C124.858 74.8093 128.005 71.6357 128.005 67.7208V17.0885C128.005 13.1736 124.858 10 120.975 10Z" fill="#F4F6F7" stroke="#18639C" stroke-width="3"/>
<path d="M88.2531 54.8987C88.0191 54.8993 87.7885 54.8424 87.5811 54.733C87.3738 54.6237 87.196 54.465 87.063 54.2709C86.198 53.0851 85.1619 52.0365 83.989 51.16C81.705 49.3764 78.8989 48.407 76.0101 48.4036C73.9085 48.4546 71.845 48.9806 69.9719 49.9428C68.0987 50.9049 66.4636 52.2788 65.1872 53.963C64.9608 54.2749 64.6208 54.4832 64.2421 54.5423C63.8633 54.6013 63.4768 54.5063 63.1676 54.278C62.8584 54.0497 62.6517 53.7069 62.5932 53.325C62.5346 52.9431 62.6289 52.5534 62.8553 52.2416C63.9055 50.8529 65.1583 49.6326 66.571 48.6224C69.315 46.5992 72.622 45.5007 76.0212 45.4832C84.3144 45.4832 88.943 51.876 89.4441 52.6051C89.5942 52.8235 89.6822 53.0791 89.6985 53.3443C89.7148 53.6095 89.6588 53.8742 89.5367 54.1096C89.4145 54.345 89.2308 54.5422 89.0054 54.6799C88.78 54.8176 88.5216 54.8905 88.2581 54.8906L88.2531 54.8987Z" fill="#18639C"/>
<path d="M65.1091 31.7526C65.9336 33.5136 64.8701 35.7617 62.739 36.7774C60.608 37.7931 58.2078 37.1885 57.3843 35.4275C56.5608 33.6665 57.6233 31.4185 59.7544 30.4028C61.8854 29.3871 64.2856 29.9916 65.1091 31.7526Z" fill="#18639C"/>
<path d="M86.5752 31.7526C85.7507 33.5136 86.8142 35.7617 88.9452 36.7774C91.0763 37.7931 93.4765 37.1885 94.3 35.4275C95.1234 33.6665 94.0609 31.4185 91.9299 30.4028C89.7988 29.3871 87.3987 29.9916 86.5752 31.7526Z" fill="#18639C"/>
</svg>
