<svg xmlns="http://www.w3.org/2000/svg" xmlns:xlink="http://www.w3.org/1999/xlink" width="44.356" height="48.279" viewBox="0 0 44.356 48.279"><defs><linearGradient id="a" x1="0.5" x2="0.5" y2="1" gradientUnits="objectBoundingBox"><stop offset="0" stop-color="#02dac5"/><stop offset="1" stop-color="#01c9b6"/></linearGradient></defs><g transform="translate(0.5 0)"><path d="M-3255.82,791.182l12.749,7.941,3.771,2.355c.9.551,1.815,1.08,2.69,1.664a1.178,1.178,0,0,1,.508.551.139.139,0,0,0,0-.065c0-7.239,0-14.489-.054-21.739,0-1.567-1.188-2.064-2.636-1.178Q-3247.37,785.92-3255.82,791.182Z" transform="translate(3279.954 -780)" fill="#18639c"/><path d="M-3271.17,788.89a1.966,1.966,0,0,1-.576,1.4,1.966,1.966,0,0,1-1.4.576H-3276v3.068h2.831a1.977,1.977,0,0,1,1.977,1.977,1.978,1.978,0,0,1-.575,1.405,1.977,1.977,0,0,1-1.4.583H-3276v3.058h2.809a2,2,0,0,1,1.977,1.988,1.977,1.977,0,0,1-1.977,1.977h-2.8v3.068h2.788a1.977,1.977,0,0,1,1.977,1.977,1.988,1.988,0,0,1-1.978,1.988h-2.787v3.069h2.777a1.976,1.976,0,0,1,1.405.575,1.977,1.977,0,0,1,.583,1.4,1.977,1.977,0,0,1-.583,1.4,1.976,1.976,0,0,1-1.4.575h-2.767v4.808c0,1.567.184,3.468,1.578,4.225s3.079-.13,4.408-.994l29.172-18.865,5.251-3.4c.595-.378,1.167-.659,1.081-1.08,0-.162-.195-.335-.508-.551-.865-.594-1.783-1.08-2.68-1.675l-3.771-2.344-12.76-7.941-8.644-5.4-7.034-4.387a8.414,8.414,0,0,0-2.712-1.264,2.821,2.821,0,0,0-2.745.8,4.225,4.225,0,0,0-.637,2.744v3.241h2.842a1.978,1.978,0,0,1,1.4.59A1.978,1.978,0,0,1-3271.17,788.89Z" transform="translate(3278.331 -780.02)" fill="url(#a)"/><path d="M1.495,0H5.571A1.5,1.5,0,0,1,7.066,1.495v.381A1.5,1.5,0,0,1,5.571,3.371H1.495A1.5,1.5,0,0,1,0,1.876V1.495A1.5,1.5,0,0,1,1.495,0Z" transform="translate(-0.251 7.184)" fill="#18639c"/><path d="M1.244-.5H5.32A1.746,1.746,0,0,1,7.064,1.244v.381A1.746,1.746,0,0,1,5.32,3.369H1.244A1.746,1.746,0,0,1-.5,1.625V1.244A1.746,1.746,0,0,1,1.244-.5ZM5.32,2.871A1.247,1.247,0,0,0,6.566,1.625V1.244A1.247,1.247,0,0,0,5.32,0H1.244A1.247,1.247,0,0,0,0,1.244v.381A1.247,1.247,0,0,0,1.244,2.871Z" transform="translate(0 7.435)" fill="#fff"/><path d="M1.495,0H5.571A1.5,1.5,0,0,1,7.066,1.495v.381A1.5,1.5,0,0,1,5.571,3.371H1.495A1.5,1.5,0,0,1,0,1.876V1.495A1.5,1.5,0,0,1,1.495,0Z" transform="translate(-0.251 14.207)" fill="#18639c"/><path d="M1.244-.5H5.32A1.746,1.746,0,0,1,7.064,1.244v.381A1.746,1.746,0,0,1,5.32,3.369H1.244A1.746,1.746,0,0,1-.5,1.625V1.244A1.746,1.746,0,0,1,1.244-.5ZM5.32,2.871A1.247,1.247,0,0,0,6.566,1.625V1.244A1.247,1.247,0,0,0,5.32,0H1.244A1.247,1.247,0,0,0,0,1.244v.381A1.247,1.247,0,0,0,1.244,2.871Z" transform="translate(0 14.458)" fill="#fff"/><path d="M1.495,0H5.571A1.5,1.5,0,0,1,7.066,1.495v.381A1.5,1.5,0,0,1,5.571,3.371H1.495A1.5,1.5,0,0,1,0,1.876V1.495A1.5,1.5,0,0,1,1.495,0Z" transform="translate(-0.251 21.241)" fill="#18639c"/><path d="M1.244-.5H5.32A1.746,1.746,0,0,1,7.064,1.244v.381A1.746,1.746,0,0,1,5.32,3.369H1.244A1.746,1.746,0,0,1-.5,1.625V1.244A1.746,1.746,0,0,1,1.244-.5ZM5.32,2.871A1.247,1.247,0,0,0,6.566,1.625V1.244A1.247,1.247,0,0,0,5.32,0H1.244A1.247,1.247,0,0,0,0,1.244v.381A1.247,1.247,0,0,0,1.244,2.871Z" transform="translate(0 21.492)" fill="#fff"/><path d="M1.495,0H5.571A1.5,1.5,0,0,1,7.066,1.495v.381A1.5,1.5,0,0,1,5.571,3.371H1.495A1.5,1.5,0,0,1,0,1.876V1.495A1.5,1.5,0,0,1,1.495,0Z" transform="translate(-0.251 28.264)" fill="#18639c"/><path d="M1.244-.5H5.32A1.746,1.746,0,0,1,7.064,1.244v.381A1.746,1.746,0,0,1,5.32,3.369H1.244A1.746,1.746,0,0,1-.5,1.625V1.244A1.746,1.746,0,0,1,1.244-.5ZM5.32,2.871A1.247,1.247,0,0,0,6.566,1.625V1.244A1.247,1.247,0,0,0,5.32,0H1.244A1.247,1.247,0,0,0,0,1.244v.381A1.247,1.247,0,0,0,1.244,2.871Z" transform="translate(0 28.515)" fill="#fff"/><path d="M1.495,0H5.571A1.5,1.5,0,0,1,7.066,1.495v.381A1.5,1.5,0,0,1,5.571,3.371H1.495A1.5,1.5,0,0,1,0,1.876V1.495A1.5,1.5,0,0,1,1.495,0Z" transform="translate(-0.251 35.298)" fill="#18639c"/><path d="M1.244-.5H5.32A1.746,1.746,0,0,1,7.064,1.244v.381A1.746,1.746,0,0,1,5.32,3.369H1.244A1.746,1.746,0,0,1-.5,1.625V1.244A1.746,1.746,0,0,1,1.244-.5ZM5.32,2.871A1.247,1.247,0,0,0,6.566,1.625V1.244A1.247,1.247,0,0,0,5.32,0H1.244A1.247,1.247,0,0,0,0,1.244v.381A1.247,1.247,0,0,0,1.244,2.871Z" transform="translate(0 35.548)" fill="#fff"/></g></svg>