<svg width="16" height="16" viewBox="0 0 16 16" fill="none" xmlns="http://www.w3.org/2000/svg">
<path d="M11.349 2.67189C11.291 2.61383 11.222 2.56778 11.1462 2.53636C11.0704 2.50494 10.9891 2.48877 10.907 2.48877C10.8249 2.48877 10.7436 2.50494 10.6678 2.53636C10.5919 2.56778 10.523 2.61383 10.465 2.67189L7.66599 5.47089C7.60518 5.52829 7.5565 5.59731 7.52284 5.67386C7.48918 5.75041 7.47123 5.83294 7.47005 5.91656C7.46886 6.00017 7.48447 6.08318 7.51595 6.16065C7.54742 6.23813 7.59413 6.3085 7.65329 6.3676C7.71246 6.4267 7.78288 6.47332 7.86039 6.50471C7.93791 6.5361 8.02093 6.55161 8.10454 6.55033C8.18816 6.54906 8.27067 6.53101 8.34718 6.49727C8.4237 6.46352 8.49266 6.41477 8.54999 6.35389L10.282 4.62389V12.8859C10.282 13.0516 10.3478 13.2106 10.4651 13.3278C10.5823 13.445 10.7412 13.5109 10.907 13.5109C11.0728 13.5109 11.2317 13.445 11.3489 13.3278C11.4661 13.2106 11.532 13.0516 11.532 12.8859V4.62289L13.262 6.35389C13.3791 6.47124 13.538 6.53728 13.7038 6.53747C13.8696 6.53766 14.0286 6.47198 14.146 6.35489C14.2634 6.23779 14.3294 6.07888 14.3296 5.91309C14.3298 5.74731 14.2641 5.58824 14.147 5.47089L11.349 2.67189ZM5.09299 2.48989C4.92741 2.48989 4.76859 2.5556 4.6514 2.67259C4.53422 2.78958 4.46826 2.9483 4.46799 3.11389V11.3769L2.73799 9.64589C2.68001 9.58778 2.61116 9.54166 2.53536 9.51016C2.45955 9.47866 2.37829 9.4624 2.2962 9.4623C2.21411 9.46221 2.13281 9.47829 2.05694 9.50961C1.98106 9.54094 1.9121 9.58691 1.85399 9.64489C1.79588 9.70287 1.74976 9.77172 1.71826 9.84752C1.68676 9.92333 1.6705 10.0046 1.67041 10.0867C1.67032 10.1688 1.68639 10.2501 1.71772 10.3259C1.74905 10.4018 1.79501 10.4708 1.85299 10.5289L4.65099 13.3279C4.89499 13.5719 5.29099 13.5719 5.53499 13.3279L8.33299 10.5299C8.44458 10.4117 8.50571 10.2546 8.50341 10.092C8.50111 9.92949 8.43555 9.77422 8.32066 9.6592C8.20577 9.54418 8.05058 9.47845 7.88803 9.47597C7.72547 9.47348 7.56835 9.53443 7.44999 9.64589L5.71799 11.3759V3.11489C5.71799 2.94913 5.65214 2.79015 5.53493 2.67294C5.41772 2.55573 5.25875 2.48989 5.09299 2.48989Z" fill="#5E5D5D"/>
</svg>
