<svg width="18" height="10" viewBox="0 0 18 10" fill="none" xmlns="http://www.w3.org/2000/svg"><path d="M5.438 6.287h1.125A3.6 3.6 0 0 1 6.1 7.734q-.375.639-1.06 1.014-.686.37-1.712.37-.75 0-1.365-.282a3 3 0 0 1-1.049-.797 3.7 3.7 0 0 1-.68-1.248A5.3 5.3 0 0 1 0 5.162v-.85q0-.896.234-1.623.24-.732.686-1.253.45-.522 1.084-.803A3.5 3.5 0 0 1 3.428.352q.967 0 1.635.363.667.363 1.037 1.008.375.638.463 1.482H5.438a3.1 3.1 0 0 0-.305-1.025 1.6 1.6 0 0 0-.633-.668q-.41-.235-1.072-.235-.57 0-1.002.217-.428.218-.72.615a2.9 2.9 0 0 0-.435.955 5 5 0 0 0-.146 1.237v.861q0 .627.129 1.178.135.551.404.967.27.416.686.656.415.234.984.234.72 0 1.149-.228.428-.229.644-.657.223-.427.316-1.025m5.156-3.627v.832H7.166V2.66zM8.326 1.12H9.41v6.31q0 .322.1.486.099.165.258.217.157.053.34.053.135 0 .28-.024l.23-.047.005.885q-.13.041-.34.076a2.6 2.6 0 0 1-.498.041q-.398 0-.732-.158a1.18 1.18 0 0 1-.533-.527q-.195-.375-.194-1.008zm4.623 2.536V9h-1.084V2.66h1.055zm1.98-1.031-.005 1.008a1.6 1.6 0 0 0-.258-.035 3 3 0 0 0-.27-.012q-.375 0-.662.117a1.4 1.4 0 0 0-.486.328 1.6 1.6 0 0 0-.316.504 2.4 2.4 0 0 0-.147.633l-.305.176q0-.574.112-1.078.117-.504.357-.891a1.75 1.75 0 0 1 .61-.61 1.7 1.7 0 0 1 1.16-.193.8.8 0 0 1 .21.053M17.11 0v9h-1.09V0z" fill="#5E5D5D"/></svg>