<svg width="16" height="16" viewBox="0 0 16 16" fill="none" xmlns="http://www.w3.org/2000/svg">
<path d="M12.9949 3.1748C13.3399 3.1748 13.6199 3.4548 13.6199 3.7998V7.7998C13.6199 8.28382 13.4277 8.74802 13.0854 9.09027C12.7432 9.43253 12.279 9.6248 11.7949 9.6248H3.70394L6.15694 12.0778C6.27417 12.195 6.34002 12.354 6.34002 12.5198C6.34002 12.6856 6.27417 12.8446 6.15694 12.9618C6.03972 13.079 5.88072 13.1449 5.71494 13.1449C5.54916 13.1449 5.39017 13.079 5.27294 12.9618L1.75294 9.4418C1.69489 9.38377 1.64883 9.31486 1.61742 9.23902C1.586 9.16318 1.56982 9.08189 1.56982 8.9998C1.56982 8.91771 1.586 8.83643 1.61742 8.76059C1.64883 8.68475 1.69489 8.61584 1.75294 8.5578L5.27294 5.0378C5.33098 4.97976 5.39989 4.93372 5.47573 4.9023C5.55157 4.87089 5.63285 4.85472 5.71494 4.85472C5.79703 4.85472 5.87831 4.87089 5.95415 4.9023C6.02999 4.93372 6.0989 4.97976 6.15694 5.0378C6.21499 5.09585 6.26103 5.16476 6.29244 5.2406C6.32386 5.31643 6.34002 5.39772 6.34002 5.4798C6.34002 5.56189 6.32386 5.64317 6.29244 5.71901C6.26103 5.79485 6.21499 5.86376 6.15694 5.9218L3.70394 8.3748H11.7949C11.9474 8.3748 12.0937 8.31422 12.2015 8.20639C12.3094 8.09856 12.3699 7.9523 12.3699 7.7998V3.7998C12.3699 3.4548 12.6499 3.1748 12.9949 3.1748Z" fill="#5E5D5D"/>
</svg>
