<svg width="24" height="24" viewBox="0 0 24 24" fill="none" xmlns="http://www.w3.org/2000/svg">
<path d="M14.9024 13.3011C15.2476 13.3011 15.5274 13.0213 15.5274 12.6761C15.5274 12.331 15.2476 12.0511 14.9024 12.0511V12.6761V13.3011ZM9.49828 11.9683L9.05166 11.5311L9.05166 11.5311L9.49828 11.9683ZM10.8756 11.4548C11.117 11.2082 11.1128 10.8125 10.8661 10.571C10.6195 10.3295 10.2238 10.3337 9.98231 10.5804L10.4289 11.0176L10.8756 11.4548ZM9.09754 14.5389C8.75236 14.5389 8.47254 14.8187 8.47254 15.1639C8.47254 15.5091 8.75236 15.7889 9.09754 15.7889V15.1639V14.5389ZM14.8921 15.2919L15.4713 15.0571L15.4713 15.057L14.8921 15.2919ZM14.5017 15.8717L14.055 15.4345L14.055 15.4345L14.5017 15.8717ZM13.1244 16.3852C12.8829 16.6319 12.8872 17.0276 13.1338 17.269C13.3805 17.5105 13.7762 17.5063 14.0177 17.2596L13.571 16.8224L13.1244 16.3852ZM17.9515 7.32088L17.5266 7.77917L17.5266 7.77918L17.9515 7.32088ZM14.8772 4.47019L14.4522 4.92848L14.4522 4.92849L14.8772 4.47019ZM14.802 4.28571C14.802 3.94054 14.5221 3.66071 14.177 3.66071C13.8318 3.66071 13.552 3.94054 13.552 4.28571H14.177H14.802ZM18.4161 8.625C18.7613 8.625 19.0411 8.34518 19.0411 8C19.0411 7.65482 18.7613 7.375 18.4161 7.375V8V8.625ZM14.9024 12.6761V12.0511H9.78529V12.6761V13.3011H14.9024V12.6761ZM9.78529 12.6761V12.0511C9.67861 12.0511 9.59606 12.0511 9.52661 12.0493C9.45566 12.0475 9.41779 12.0443 9.399 12.0416C9.37554 12.0382 9.41416 12.04 9.47368 12.0721C9.50723 12.0902 9.5495 12.119 9.59072 12.1629C9.63288 12.2079 9.66525 12.2595 9.68705 12.3133L9.10785 12.5482L8.52865 12.783C8.69004 13.181 9.07421 13.2576 9.22029 13.2787C9.3866 13.3027 9.59817 13.3011 9.78529 13.3011V12.6761ZM9.10785 12.5482L9.68705 12.3133C9.70885 12.3671 9.72123 12.4258 9.72249 12.4856C9.72373 12.544 9.71418 12.5923 9.70375 12.6268C9.68526 12.688 9.66136 12.7141 9.6763 12.6938C9.68856 12.6772 9.7138 12.6467 9.76289 12.594C9.811 12.5424 9.86954 12.4825 9.94491 12.4055L9.49828 11.9683L9.05166 11.5311C8.91877 11.6669 8.76947 11.8172 8.66975 11.9526C8.58325 12.0701 8.36992 12.3915 8.52865 12.783L9.10785 12.5482ZM9.49828 11.9683L9.94491 12.4055L10.8756 11.4548L10.4289 11.0176L9.98231 10.5804L9.05166 11.5311L9.49828 11.9683ZM9.09754 15.1639V15.7889H14.2147V15.1639V14.5389H9.09754V15.1639ZM14.2147 15.1639V15.7889C14.3213 15.7889 14.4039 15.7889 14.4733 15.7907C14.5443 15.7925 14.5822 15.7958 14.601 15.7985C14.6244 15.8019 14.5858 15.8001 14.5263 15.768C14.4927 15.7499 14.4505 15.7211 14.4093 15.6771C14.3671 15.6321 14.3347 15.5805 14.3129 15.5268L14.8921 15.2919L15.4713 15.057C15.3099 14.659 14.9258 14.5824 14.7797 14.5613C14.6134 14.5373 14.4018 14.5389 14.2147 14.5389V15.1639ZM14.8921 15.2919L14.3129 15.5267C14.2911 15.4729 14.2787 15.4142 14.2775 15.3543C14.2762 15.2959 14.2858 15.2477 14.2962 15.2132C14.3147 15.1521 14.3386 15.1259 14.3237 15.1462C14.3114 15.1629 14.2862 15.1933 14.2371 15.246C14.189 15.2976 14.1304 15.3575 14.055 15.4345L14.5017 15.8717L14.9483 16.3089C15.0812 16.1732 15.2305 16.0228 15.3302 15.8874C15.4167 15.77 15.63 15.4486 15.4713 15.0571L14.8921 15.2919ZM14.5017 15.8717L14.055 15.4345L13.1244 16.3852L13.571 16.8224L14.0177 17.2596L14.9483 16.3089L14.5017 15.8717ZM17.9515 7.32088L18.3765 6.86258L15.3021 4.01189L14.8772 4.47019L14.4522 4.92849L17.5266 7.77917L17.9515 7.32088ZM14.8772 4.47019L15.3021 4.01189C14.8583 3.60038 14.2781 3.375 13.672 3.375V4V4.625C13.9662 4.625 14.242 4.73356 14.4522 4.92848L14.8772 4.47019ZM13.672 4V3.375H7.25362V4V4.625H13.672V4ZM7.25362 4V3.375C5.95339 3.375 4.875 4.41408 4.875 5.71875H5.5H6.125C6.125 5.12799 6.61996 4.625 7.25362 4.625V4ZM5.5 5.71875H4.875V18.2813H5.5H6.125V5.71875H5.5ZM5.5 18.2813H4.875C4.875 19.5859 5.95339 20.625 7.25362 20.625V20V19.375C6.61996 19.375 6.125 18.872 6.125 18.2813H5.5ZM7.25362 20V20.625H16.7464V20V19.375H7.25362V20ZM16.7464 20V20.625C18.0466 20.625 19.125 19.5859 19.125 18.2813H18.5H17.875C17.875 18.872 17.38 19.375 16.7464 19.375V20ZM18.5 18.2813H19.125V8.56944H18.5H17.875V18.2813H18.5ZM18.5 8.56944H19.125C19.125 7.92309 18.851 7.30259 18.3765 6.86257L17.9515 7.32088L17.5266 7.77918C17.7491 7.98554 17.875 8.27522 17.875 8.56944H18.5ZM14.177 4.28571H13.552V7.42857H14.177H14.802V4.28571H14.177ZM14.7422 8V8.625H18.4161V8V7.375H14.7422V8ZM14.177 7.42857H13.552C13.552 8.08288 14.0784 8.625 14.7422 8.625V8V7.375C14.7816 7.375 14.802 7.40544 14.802 7.42857H14.177Z" fill="black"/>
</svg>
