<svg width="24" height="24" viewBox="0 0 24 24" fill="none" xmlns="http://www.w3.org/2000/svg">
<path d="M6.64345 16.1429C6.64345 15.7287 6.30766 15.3929 5.89345 15.3929C5.47923 15.3929 5.14345 15.7287 5.14345 16.1429H5.89345H6.64345ZM5.89345 17.9069H5.14344L5.14345 17.909L5.89345 17.9069ZM6.54293 19.6033L5.98632 20.106L5.98639 20.106L6.54293 19.6033ZM8.13448 20.3877L8.08032 21.1357L8.08337 21.136L8.13448 20.3877ZM17.099 21L17.0479 21.7483L17.0734 21.75H17.099V21ZM18.7968 20.272L19.3362 20.7932L19.3363 20.793L18.7968 20.272ZM18.7951 3.7263L18.2561 4.24785L18.2562 4.24794L18.7951 3.7263ZM17.094 3.00001L17.0924 2.25001L17.0676 2.25006L17.0429 2.25175L17.094 3.00001ZM8.13514 3.6123L8.084 2.86404L8.08131 2.86424L8.13514 3.6123ZM6.54331 4.39645L5.98685 3.8936L5.98685 3.8936L6.54331 4.39645ZM5.89345 6.09304L5.14345 6.091V6.09304H5.89345ZM5.14345 7.85707C5.14345 8.27128 5.47924 8.60707 5.89345 8.60707C6.30766 8.60707 6.64345 8.27128 6.64345 7.85707H5.89345H5.14345ZM11.6705 8.48206C11.3845 8.18248 10.9097 8.17151 10.6102 8.45756C10.3106 8.74362 10.2996 9.21836 10.5857 9.51794L11.1281 9L11.6705 8.48206ZM13.8136 11.8125L14.356 12.3304C14.6328 12.0406 14.6328 11.5844 14.356 11.2946L13.8136 11.8125ZM10.5857 14.1071C10.2996 14.4066 10.3106 14.8814 10.6102 15.1674C10.9097 15.4535 11.3845 15.4425 11.6705 15.1429L11.1281 14.625L10.5857 14.1071ZM4.5 11.0625C4.08579 11.0625 3.75 11.3983 3.75 11.8125C3.75 12.2267 4.08579 12.5625 4.5 12.5625V11.8125V11.0625ZM5.89345 16.1429H5.14345V17.9069H5.89345H6.64345V16.1429H5.89345ZM5.89345 17.9069L5.14345 17.909C5.14569 18.7208 5.44452 19.506 5.98632 20.106L6.54293 19.6033L7.09953 19.1006C6.81001 18.78 6.64468 18.3531 6.64344 17.9049L5.89345 17.9069ZM6.54293 19.6033L5.98639 20.106C6.52907 20.7068 7.27643 21.0775 8.08032 21.1357L8.13448 20.3877L8.18865 19.6397C7.7783 19.6099 7.38834 19.4203 7.09946 19.1005L6.54293 19.6033ZM17.099 21V21.75C17.9433 21.75 18.7474 21.4025 19.3362 20.7932L18.7968 20.272L18.2575 19.7509C17.9455 20.0737 17.5283 20.25 17.099 20.25V21ZM18.7968 20.272L19.3363 20.793C19.9241 20.1843 20.25 19.3642 20.25 18.5143H19.5H18.75C18.75 18.9829 18.5699 19.4273 18.2573 19.751L18.7968 20.272ZM19.5 18.5143H20.25V5.48575H19.5H18.75V18.5143H19.5ZM19.5 5.48575H20.25C20.25 4.6347 19.9233 3.81347 19.3339 3.20467L18.7951 3.7263L18.2562 4.24794C18.5694 4.57158 18.75 5.01652 18.75 5.48575H19.5ZM18.7951 3.7263L19.334 3.20476C18.7439 2.59488 17.9378 2.24817 17.0924 2.25001L17.094 3.00001L17.0956 3.75C17.5256 3.74907 17.9437 3.92501 18.2561 4.24785L18.7951 3.7263ZM8.13514 3.6123L8.08131 2.86424C7.27705 2.92211 6.52964 3.29295 5.98685 3.8936L6.54331 4.39645L7.09976 4.8993C7.38881 4.57944 7.77872 4.38989 8.18897 4.36037L8.13514 3.6123ZM6.54331 4.39645L5.98685 3.8936C5.44471 4.49353 5.14566 5.27892 5.14345 6.091L5.89345 6.09304L6.64345 6.09508C6.64467 5.64682 6.81007 5.21987 7.09976 4.8993L6.54331 4.39645ZM5.89345 6.09304H5.14345V7.85707H5.89345H6.64345V6.09304H5.89345ZM8.13514 3.6123L8.18628 4.36056L17.1451 3.74826L17.094 3.00001L17.0429 2.25175L8.084 2.86405L8.13514 3.6123ZM8.13448 20.3877L8.08337 21.136L17.0479 21.7483L17.099 21L17.1501 20.2517L8.18559 19.6394L8.13448 20.3877ZM11.1281 9L10.5857 9.51794L13.2712 12.3304L13.8136 11.8125L14.356 11.2946L11.6705 8.48206L11.1281 9ZM13.8136 11.8125L13.2712 11.2946L10.5857 14.1071L11.1281 14.625L11.6705 15.1429L14.356 12.3304L13.8136 11.8125ZM13.8136 11.8125V11.0625H4.5V11.8125V12.5625H13.8136V11.8125Z" fill="black"/>
</svg>
