<svg width="20" height="20" viewBox="0 0 20 20" fill="none" xmlns="http://www.w3.org/2000/svg">
<path d="M14.5976 5.37819C13.7399 4.51584 12.6427 3.892 11.4131 3.61912L11.4975 2L8.31999 3.68334L7.47131 4.13503L7.31385 4.21797L7.56486 4.35331L11.2693 6.35781L11.3401 5.01847C12.2186 5.25428 13.001 5.72253 13.6283 6.35091C14.5589 7.2865 15.1313 8.57337 15.1313 10.0002C15.1313 10.7316 14.9808 11.4245 14.7094 12.0529L15.9641 12.6007C16.3084 11.805 16.5 10.9246 16.5 10.0002C16.5024 8.19706 15.7725 6.5595 14.5976 5.37819Z" fill="#5E5D5D"/>
<path d="M8.73053 13.6418L8.65992 14.9815C7.78158 14.7454 6.9968 14.2774 6.37183 13.6491C5.44113 12.7132 4.86866 11.4266 4.86866 10.0002C4.86866 9.26806 5.01921 8.57759 5.29061 7.94713L4.03589 7.39928C3.69164 8.19709 3.5 9.07813 3.5 10.0002C3.5 11.8026 4.2275 13.4426 5.40244 14.6218C6.2601 15.4841 7.35736 16.1077 8.58672 16.3781L8.50231 18L12.5311 15.8646L12.6861 15.782L12.4375 15.6467L8.73053 13.6418Z" fill="#5E5D5D"/>
</svg>
