<svg width="20" height="20" viewBox="0 0 20 20" fill="none" xmlns="http://www.w3.org/2000/svg">
<path d="M15.8333 2.5V5.83333M14.1667 4.16667H17.5M15.8333 14.1667V17.5M14.1667 15.8333H17.5M8.33333 4.16667L7.10834 7.27267C6.95175 7.66972 6.87345 7.86825 6.75356 8.03565C6.64729 8.18403 6.51737 8.31396 6.36898 8.42025C6.20158 8.54008 6.00306 8.61842 5.60601 8.775L2.5 10L5.60601 11.225C6.00306 11.3816 6.20158 11.4599 6.36898 11.5798C6.51737 11.6861 6.64729 11.816 6.75356 11.9643C6.87345 12.1317 6.95175 12.3303 7.10834 12.7273L8.33333 15.8333L9.55833 12.7273C9.71492 12.3303 9.79325 12.1317 9.91308 11.9643C10.0194 11.816 10.1493 11.6861 10.2977 11.5798C10.4651 11.4599 10.6636 11.3816 11.0607 11.225L14.1667 10L11.0607 8.775C10.6636 8.61842 10.4651 8.54008 10.2977 8.42025C10.1493 8.31396 10.0194 8.18403 9.91308 8.03565C9.79325 7.86825 9.71492 7.66972 9.55833 7.27267L8.33333 4.16667Z" stroke="url(#paint0_linear_7586_6818)" stroke-width="1.5" stroke-linecap="round" stroke-linejoin="round"/>
<defs>
<linearGradient id="paint0_linear_7586_6818" x1="2.02482" y1="4.34247" x2="20.9319" y2="22.1226" gradientUnits="userSpaceOnUse">
<stop stop-color="#0084FF"/>
<stop offset="0.419375" stop-color="#00DAD6"/>
<stop offset="1" stop-color="#31ED66"/>
</linearGradient>
</defs>
</svg>
