<svg width="20" height="20" viewBox="0 0 20 20" fill="none" xmlns="http://www.w3.org/2000/svg"><g clip-path="url(#a)"><path d="M9.987 1v2.057M1 9.991h2.057M19 9.99h-2.061m-.56 6.35-.978-.963-.49-.481m1.465-11.252-.983.963-.49.481M3.662 3.602l.955.984.477.492M3.637 16.365l.979-.965.49-.483M10.004 19v-2.061m0-11.44c-2.478-.01-4.493 2-4.507 4.487-.015 2.477 2.015 4.51 4.502 4.51A4.505 4.505 0 0 0 14.498 10a4.5 4.5 0 0 0-4.493-4.5Z" stroke="#ff0" stroke-width="1.5" stroke-linecap="round"/></g><defs><clipPath id="a"><path fill="#fff" d="M0 0h20v20H0z"/></clipPath></defs></svg>