<svg width="24" height="24" viewBox="0 0 24 24" fill="none" xmlns="http://www.w3.org/2000/svg">
<path d="M17.9515 7.32088L17.5266 7.77917L17.5266 7.77918L17.9515 7.32088ZM14.8772 4.47019L14.4522 4.92848L14.4522 4.92849L14.8772 4.47019ZM14.802 4.28571C14.802 3.94054 14.5221 3.66071 14.177 3.66071C13.8318 3.66071 13.552 3.94054 13.552 4.28571H14.177H14.802ZM18.4161 8.625C18.7613 8.625 19.0411 8.34518 19.0411 8C19.0411 7.65482 18.7613 7.375 18.4161 7.375V8V8.625ZM11.25 10V9.375C10.9048 9.375 10.625 9.65482 10.625 10H11.25ZM10.625 12.1495C10.625 12.4947 10.9048 12.7745 11.25 12.7745C11.5952 12.7745 11.875 12.4947 11.875 12.1495H11.25H10.625ZM12 17V17.625C12.3452 17.625 12.625 17.3452 12.625 17H12ZM12.625 16.3389C12.625 15.9937 12.3452 15.7139 12 15.7139C11.6548 15.7139 11.375 15.9937 11.375 16.3389H12H12.625ZM17.9515 7.32088L18.3765 6.86258L15.3021 4.01189L14.8772 4.47019L14.4522 4.92849L17.5266 7.77917L17.9515 7.32088ZM14.8772 4.47019L15.3021 4.01189C14.8583 3.60038 14.2781 3.375 13.672 3.375V4V4.625C13.9662 4.625 14.242 4.73356 14.4522 4.92848L14.8772 4.47019ZM13.672 4V3.375H7.25362V4V4.625H13.672V4ZM7.25362 4V3.375C5.95339 3.375 4.875 4.41408 4.875 5.71875H5.5H6.125C6.125 5.12799 6.61996 4.625 7.25362 4.625V4ZM5.5 5.71875H4.875V18.2813H5.5H6.125V5.71875H5.5ZM5.5 18.2813H4.875C4.875 19.5859 5.95339 20.625 7.25362 20.625V20V19.375C6.61996 19.375 6.125 18.872 6.125 18.2813H5.5ZM7.25362 20V20.625H16.7464V20V19.375H7.25362V20ZM16.7464 20V20.625C18.0466 20.625 19.125 19.5859 19.125 18.2813H18.5H17.875C17.875 18.872 17.38 19.375 16.7464 19.375V20ZM18.5 18.2813H19.125V8.56944H18.5H17.875V18.2813H18.5ZM18.5 8.56944H19.125C19.125 7.92309 18.851 7.30259 18.3765 6.86257L17.9515 7.32088L17.5266 7.77918C17.7491 7.98554 17.875 8.27522 17.875 8.56944H18.5ZM14.177 4.28571H13.552V7.42857H14.177H14.802V4.28571H14.177ZM14.7422 8V8.625H18.4161V8V7.375H14.7422V8ZM14.177 7.42857H13.552C13.552 8.08288 14.0784 8.625 14.7422 8.625V8V7.375C14.7816 7.375 14.802 7.40544 14.802 7.42857H14.177ZM11.25 10V10.625H12.75V10V9.375H11.25V10ZM11.25 12.1495H11.875V10H11.25H10.625V12.1495H11.25ZM15 12.1H14.375C14.375 12.8747 13.6888 13.575 12.75 13.575V14.2V14.825C14.2965 14.825 15.625 13.6449 15.625 12.1H15ZM12.75 10V10.625C13.6888 10.625 14.375 11.3253 14.375 12.1H15H15.625C15.625 10.5551 14.2965 9.375 12.75 9.375V10ZM12 17V16.375H10.5V17V17.625H12V17ZM12 16.3389H11.375V17H12H12.625V16.3389H12ZM10.5 17V16.375C9.97544 16.375 9.625 15.9881 9.625 15.6H9H8.375C8.375 16.7583 9.36771 17.625 10.5 17.625V17ZM10.5 14.2V13.575C9.36771 13.575 8.375 14.4417 8.375 15.6H9H9.625C9.625 15.2119 9.97544 14.825 10.5 14.825V14.2ZM12.75 14.2V13.575H10.5V14.2V14.825H12.75V14.2Z" fill="black"/>
</svg>
