<svg width="20" height="20" viewBox="0 0 20 20" fill="none" xmlns="http://www.w3.org/2000/svg">
<path d="M12.6578 7.53874L12.351 14.9232M8.1061 14.9232L7.79934 7.53874M16.6368 4.90497C16.94 4.94763 18 5.11111 18 5.11111M16.6368 4.90497L15.6899 16.2958C15.6513 16.7596 15.4249 17.1928 15.056 17.5087C14.6872 17.8247 14.203 18.0001 13.7004 18H6.75672C6.25412 18.0001 5.76998 17.8247 5.40112 17.5087C5.03227 17.1928 4.80588 16.7596 4.76724 16.2958L3.82037 4.90497M16.6368 4.90497C15.6135 4.7618 14.585 4.65315 13.5532 4.57923M3.82037 4.90497C3.51716 4.94681 2.30144 5.0627 2 5.11111M3.82037 4.90497C4.8436 4.76181 5.87212 4.65316 6.9039 4.57923M13.5532 4.57923V3.82766C13.5532 2.85948 12.7465 2.05212 11.7003 2.02176C10.7194 1.99275 9.73775 1.99275 8.75685 2.02176C7.71068 2.05212 6.9039 2.8603 6.9039 3.82766V4.57923M13.5532 4.57923C11.3401 4.42094 9.11705 4.42094 6.9039 4.57923" stroke="black" stroke-width="1.5" stroke-linecap="round" stroke-linejoin="round"/>
</svg>
