<svg width="24" height="24" viewBox="0 0 24 24" fill="none" xmlns="http://www.w3.org/2000/svg">
<path d="M14.6578 9.53874L14.351 16.9232M10.1061 16.9232L9.79934 9.53874M18.6368 6.90497C18.94 6.94763 20 7.11111 20 7.11111M18.6368 6.90497L17.6899 18.2958C17.6513 18.7596 17.4249 19.1928 17.056 19.5087C16.6872 19.8247 16.203 20.0001 15.7004 20H8.75672C8.25412 20.0001 7.76998 19.8247 7.40112 19.5087C7.03227 19.1928 6.80588 18.7596 6.76724 18.2958L5.82037 6.90497M18.6368 6.90497C17.6135 6.7618 16.585 6.65315 15.5532 6.57923M5.82037 6.90497C5.51716 6.94681 4.30144 7.0627 4 7.11111M5.82037 6.90497C6.8436 6.76181 7.87213 6.65315 8.9039 6.57923M15.5532 6.57923V5.82766C15.5532 4.85948 14.7465 4.05212 13.7003 4.02176C12.7194 3.99275 11.7377 3.99275 10.7568 4.02176C9.71068 4.05212 8.9039 4.8603 8.9039 5.82766V6.57923M15.5532 6.57923C13.3401 6.42094 11.117 6.42094 8.9039 6.57923" stroke="black" stroke-width="1.25" stroke-linecap="round" stroke-linejoin="round"/>
</svg>
