<svg width="24" height="24" viewBox="0 0 24 24" fill="none" xmlns="http://www.w3.org/2000/svg">
<path d="M14.3256 9.8464L14.0572 16.3078M10.3428 16.3078L10.0744 9.8464M17.8072 7.54184C18.0725 7.57918 19 7.72222 19 7.72222M17.8072 7.54184L16.9787 17.5089C16.9449 17.9147 16.7468 18.2937 16.424 18.5701C16.1013 18.8466 15.6776 19.0001 15.2379 19H9.16213C8.72235 19.0001 8.29873 18.8466 7.97598 18.5701C7.65324 18.2937 7.45515 17.9147 7.42133 17.5089L6.59282 7.54184M17.8072 7.54184C16.9119 7.41658 16.0119 7.32151 15.1091 7.25683M6.59282 7.54184C6.32752 7.57846 5.26376 7.67986 5 7.72222M6.59282 7.54184C7.48815 7.41658 8.38811 7.32151 9.29091 7.25683M15.1091 7.25683V6.5992C15.1091 5.75205 14.4032 5.0456 13.4878 5.01904C12.6295 4.99365 11.7705 4.99365 10.9122 5.01904C9.99685 5.0456 9.29091 5.75276 9.29091 6.5992V7.25683M15.1091 7.25683C13.1726 7.11832 11.2274 7.11832 9.29091 7.25683" stroke="black" stroke-width="1.5" stroke-linecap="round"/>
</svg>
