<svg width="20" height="20" viewBox="0 0 20 20" fill="none" xmlns="http://www.w3.org/2000/svg">
<path d="M11.6001 15.861C14.6171 15.861 16.1257 15.861 17.0629 14.846C18.0002 13.8311 18.0002 12.1975 18.0002 8.93048C18.0002 5.66342 18.0002 4.0299 17.0629 3.01494C16.1257 2 14.6171 2 11.6001 2H8.4001C5.38306 2 3.87455 2 2.93727 3.01494C2 4.0299 2 5.66342 2 8.93048C2 12.1975 2 13.8311 2.93727 14.846C3.45982 15.4119 4.15994 15.6622 5.20005 15.773" stroke="#815D31" stroke-width="1.5" stroke-linecap="round" stroke-linejoin="round"/>
<path d="M10.0004 8.93073V8.94426" stroke="#815D31" stroke-width="2" stroke-linecap="round"/>
<path d="M6.79968 8.93073V8.94426" stroke="#815D31" stroke-width="2" stroke-linecap="round"/>
<path d="M13.2009 8.93073V8.94426" stroke="#815D31" stroke-width="2" stroke-linecap="round"/>
<path d="M11.6008 15.8608C10.6116 15.8608 9.52255 16.2933 8.52765 16.8527C6.9297 17.7512 6.13073 18.2004 5.73701 17.9142C5.34328 17.6279 5.41781 16.7402 5.56686 14.9648L5.60073 14.5613" stroke="#815D31" stroke-width="1.5" stroke-linecap="round"/>
</svg>
